<svg width="17" height="17" viewBox="0 0 17 17" fill="none" xmlns="http://www.w3.org/2000/svg">
<path d="M8.33333 16.6667C7.18056 16.6667 6.09722 16.4479 5.08333 16.0104C4.06944 15.5729 3.1875 14.9792 2.4375 14.2292C1.6875 13.4792 1.09375 12.5972 0.65625 11.5833C0.21875 10.5694 0 9.48611 0 8.33333C0 7.18056 0.21875 6.09722 0.65625 5.08333C1.09375 4.06944 1.6875 3.1875 2.4375 2.4375C3.1875 1.6875 4.06944 1.09375 5.08333 0.65625C6.09722 0.21875 7.18056 0 8.33333 0C9.5 0 10.5868 0.21875 11.5937 0.65625C12.6007 1.09375 13.4792 1.6875 14.2292 2.4375C14.9792 3.1875 15.5729 4.06597 16.0104 5.07292C16.4479 6.07986 16.6667 7.16667 16.6667 8.33333C16.6667 8.47222 16.6632 8.60764 16.6562 8.73958C16.6493 8.87153 16.6389 9 16.625 9.125C16.5972 9.36111 16.4965 9.54167 16.3229 9.66667C16.1493 9.79167 15.9444 9.83333 15.7083 9.79167C15.4722 9.75 15.2847 9.63194 15.1458 9.4375C15.0069 9.24306 14.9514 9.02778 14.9792 8.79167C14.9792 8.72222 14.9826 8.64583 14.9896 8.5625C14.9965 8.47917 15 8.40278 15 8.33333C15 7.40278 14.8299 6.53472 14.4896 5.72917C14.1493 4.92361 13.6736 4.21528 13.0625 3.60417C12.4514 2.99306 11.7431 2.51736 10.9375 2.17708C10.1319 1.83681 9.26389 1.66667 8.33333 1.66667C6.47222 1.66667 4.89583 2.3125 3.60417 3.60417C2.3125 4.89583 1.66667 6.47222 1.66667 8.33333C1.66667 10.1944 2.3125 11.7708 3.60417 13.0625C4.89583 14.3542 6.47222 15 8.33333 15C8.95833 15 9.55903 14.9201 10.1354 14.7604C10.7118 14.6007 11.2569 14.3611 11.7708 14.0417C11.9653 13.9306 12.1771 13.8889 12.4062 13.9167C12.6354 13.9444 12.8125 14.0556 12.9375 14.25C13.0764 14.4444 13.1215 14.6562 13.0729 14.8854C13.0243 15.1146 12.9028 15.2917 12.7083 15.4167C12.0556 15.8194 11.3646 16.1285 10.6354 16.3437C9.90625 16.559 9.13889 16.6667 8.33333 16.6667ZM14.375 13.3333C14.0833 13.3333 13.8368 13.2326 13.6354 13.0312C13.434 12.8299 13.3333 12.5833 13.3333 12.2917C13.3333 12 13.434 11.7535 13.6354 11.5521C13.8368 11.3507 14.0833 11.25 14.375 11.25C14.6667 11.25 14.9132 11.3507 15.1146 11.5521C15.316 11.7535 15.4167 12 15.4167 12.2917C15.4167 12.5833 15.316 12.8299 15.1146 13.0312C14.9132 13.2326 14.6667 13.3333 14.375 13.3333ZM9.16667 8L11.6667 10.5C11.8194 10.6528 11.8958 10.8472 11.8958 11.0833C11.8958 11.3194 11.8194 11.5139 11.6667 11.6667C11.5139 11.8194 11.3194 11.8958 11.0833 11.8958C10.8472 11.8958 10.6528 11.8194 10.5 11.6667L7.75 8.91667C7.66667 8.83333 7.60417 8.73958 7.5625 8.63542C7.52083 8.53125 7.5 8.42361 7.5 8.3125V5C7.5 4.76389 7.57986 4.56597 7.73958 4.40625C7.8993 4.24653 8.09722 4.16667 8.33333 4.16667C8.56944 4.16667 8.76736 4.24653 8.92708 4.40625C9.08681 4.56597 9.16667 4.76389 9.16667 5V8Z" fill="black"/>
</svg>
