<svg width="24" height="27" viewBox="0 0 24 27" fill="none" xmlns="http://www.w3.org/2000/svg">
<path d="M6.5 18.0597C7.28333 18.0597 8.04583 18.1531 8.7875 18.3399C9.52917 18.5267 10.2667 18.8069 11 19.1805V8.66678C10.3167 8.23983 9.59167 7.91961 8.825 7.70614C8.05833 7.49266 7.28333 7.38592 6.5 7.38592C5.9 7.38592 5.30417 7.44819 4.7125 7.57271C4.12083 7.69724 3.55 7.88403 3 8.13309V18.7002C3.58333 18.4867 4.1625 18.3266 4.7375 18.2198C5.3125 18.1131 5.9 18.0597 6.5 18.0597ZM13 19.1805C13.7333 18.8069 14.4708 18.5267 15.2125 18.3399C15.9542 18.1531 16.7167 18.0597 17.5 18.0597C18.1 18.0597 18.6875 18.1131 19.2625 18.2198C19.8375 18.3266 20.4167 18.4867 21 18.7002V8.13309C20.45 7.88403 19.8792 7.69724 19.2875 7.57271C18.6958 7.44819 18.1 7.38592 17.5 7.38592C16.7167 7.38592 15.9417 7.49266 15.175 7.70614C14.4083 7.91961 13.6833 8.23983 13 8.66678V19.1805ZM12 21.7689C11.7667 21.7689 11.5458 21.7378 11.3375 21.6755C11.1292 21.6132 10.9333 21.5287 10.75 21.422C10.1 21.0128 9.41667 20.706 8.7 20.5014C7.98333 20.2968 7.25 20.1945 6.5 20.1945C5.8 20.1945 5.1125 20.2923 4.4375 20.488C3.7625 20.6837 3.11667 20.9595 2.5 21.3152C2.15 21.5109 1.8125 21.502 1.4875 21.2886C1.1625 21.0751 1 20.7638 1 20.3546V7.49266C1 7.29697 1.04583 7.11018 1.1375 6.93229C1.22917 6.75439 1.36667 6.62097 1.55 6.53202C2.31667 6.10506 3.11667 5.78485 3.95 5.57137C4.78333 5.3579 5.63333 5.25116 6.5 5.25116C7.46667 5.25116 8.4125 5.38458 9.3375 5.65143C10.2625 5.91827 11.15 6.31854 12 6.85223C12.85 6.31854 13.7375 5.91827 14.6625 5.65143C15.5875 5.38458 16.5333 5.25116 17.5 5.25116C18.3667 5.25116 19.2167 5.3579 20.05 5.57137C20.8833 5.78485 21.6833 6.10506 22.45 6.53202C22.6333 6.62097 22.7708 6.75439 22.8625 6.93229C22.9542 7.11018 23 7.29697 23 7.49266V20.3546C23 20.7638 22.8375 21.0751 22.5125 21.2886C22.1875 21.502 21.85 21.5109 21.5 21.3152C20.8833 20.9595 20.2375 20.6837 19.5625 20.488C18.8875 20.2923 18.2 20.1945 17.5 20.1945C16.75 20.1945 16.0167 20.2968 15.3 20.5014C14.5833 20.706 13.9 21.0128 13.25 21.422C13.0667 21.5287 12.8708 21.6132 12.6625 21.6755C12.4542 21.7378 12.2333 21.7689 12 21.7689ZM14 10.3479C14 10.1878 14.0542 10.0232 14.1625 9.85424C14.2708 9.68524 14.3917 9.57405 14.525 9.52069C15.0083 9.34279 15.4917 9.20937 15.975 9.12042C16.4583 9.03147 16.9667 8.98699 17.5 8.98699C17.8333 8.98699 18.1625 9.00923 18.4875 9.05371C18.8125 9.09818 19.1333 9.156 19.45 9.22716C19.6 9.26273 19.7292 9.35168 19.8375 9.494C19.9458 9.63632 20 9.79643 20 9.97432C20 10.2767 19.9083 10.4991 19.725 10.6414C19.5417 10.7838 19.3083 10.8193 19.025 10.7482C18.7917 10.6948 18.5458 10.6548 18.2875 10.6281C18.0292 10.6014 17.7667 10.5881 17.5 10.5881C17.0667 10.5881 16.6417 10.6325 16.225 10.7215C15.8083 10.8104 15.4083 10.9261 15.025 11.0684C14.725 11.1929 14.4792 11.184 14.2875 11.0417C14.0958 10.8994 14 10.6681 14 10.3479ZM14 16.2185C14 16.0584 14.0542 15.8938 14.1625 15.7248C14.2708 15.5558 14.3917 15.4447 14.525 15.3913C15.0083 15.2134 15.4917 15.08 15.975 14.991C16.4583 14.9021 16.9667 14.8576 17.5 14.8576C17.8333 14.8576 18.1625 14.8798 18.4875 14.9243C18.8125 14.9688 19.1333 15.0266 19.45 15.0978C19.6 15.1333 19.7292 15.2223 19.8375 15.3646C19.9458 15.5069 20 15.667 20 15.8449C20 16.1473 19.9083 16.3697 19.725 16.512C19.5417 16.6544 19.3083 16.6899 19.025 16.6188C18.7917 16.5654 18.5458 16.5254 18.2875 16.4987C18.0292 16.472 17.7667 16.4587 17.5 16.4587C17.0667 16.4587 16.6417 16.4987 16.225 16.5787C15.8083 16.6588 15.4083 16.77 15.025 16.9123C14.725 17.0368 14.4792 17.0324 14.2875 16.899C14.0958 16.7655 14 16.5387 14 16.2185ZM14 13.2832C14 13.1231 14.0542 12.9585 14.1625 12.7895C14.2708 12.6205 14.3917 12.5094 14.525 12.456C15.0083 12.2781 15.4917 12.1447 15.975 12.0557C16.4583 11.9668 16.9667 11.9223 17.5 11.9223C17.8333 11.9223 18.1625 11.9445 18.4875 11.989C18.8125 12.0335 19.1333 12.0913 19.45 12.1625C19.6 12.198 19.7292 12.287 19.8375 12.4293C19.9458 12.5716 20 12.7317 20 12.9096C20 13.212 19.9083 13.4344 19.725 13.5767C19.5417 13.7191 19.3083 13.7546 19.025 13.6835C18.7917 13.6301 18.5458 13.5901 18.2875 13.5634C18.0292 13.5367 17.7667 13.5234 17.5 13.5234C17.0667 13.5234 16.6417 13.5678 16.225 13.6568C15.8083 13.7457 15.4083 13.8614 15.025 14.0037C14.725 14.1282 14.4792 14.1193 14.2875 13.977C14.0958 13.8347 14 13.6034 14 13.2832Z" fill="#A317D4"/>
</svg>
