<svg width="24" height="27" viewBox="0 0 24 27" fill="none" xmlns="http://www.w3.org/2000/svg">
<path d="M15.075 20.6634L14.225 23.2518C14.1583 23.4475 14.0417 23.6076 13.875 23.7321C13.7083 23.8567 13.525 23.9189 13.325 23.9189C12.9917 23.9189 12.7208 23.7721 12.5125 23.4786C12.3042 23.1851 12.2667 22.8604 12.4 22.5046L16.2 11.7775C16.2833 11.5818 16.4083 11.4217 16.575 11.2971C16.7417 11.1726 16.925 11.1103 17.125 11.1103H17.875C18.075 11.1103 18.2583 11.1726 18.425 11.2971C18.5917 11.4217 18.7167 11.5818 18.8 11.7775L22.6 22.5313C22.7333 22.8693 22.7 23.1851 22.5 23.4786C22.3 23.7721 22.0333 23.9189 21.7 23.9189C21.4833 23.9189 21.2958 23.8567 21.1375 23.7321C20.9792 23.6076 20.8583 23.4386 20.775 23.2251L19.925 20.6634H15.075ZM9.05 15.3532L4.7 19.9696C4.51667 20.1653 4.2875 20.2676 4.0125 20.2765C3.7375 20.2854 3.5 20.1831 3.3 19.9696C3.11667 19.7739 3.025 19.5249 3.025 19.2224C3.025 18.92 3.11667 18.671 3.3 18.4753L7.65 13.8322C7.06667 13.2095 6.5375 12.4979 6.0625 11.6974C5.5875 10.8969 5.15 9.98959 4.75 8.97558H6.85C7.18333 9.66937 7.51667 10.2742 7.85 10.7901C8.18333 11.306 8.58333 11.8219 9.05 12.3378C9.6 11.7508 10.1708 10.928 10.7625 9.86951C11.3542 8.81102 11.8 7.80146 12.1 6.84081H2C1.71667 6.84081 1.47917 6.73852 1.2875 6.53394C1.09583 6.32936 1 6.07586 1 5.77343C1 5.47101 1.09583 5.21751 1.2875 5.01292C1.47917 4.80834 1.71667 4.70605 2 4.70605H8V3.63867C8 3.33625 8.09583 3.08274 8.2875 2.87816C8.47917 2.67358 8.71667 2.57129 9 2.57129C9.28333 2.57129 9.52083 2.67358 9.7125 2.87816C9.90417 3.08274 10 3.33625 10 3.63867V4.70605H16C16.2833 4.70605 16.5208 4.80834 16.7125 5.01292C16.9042 5.21751 17 5.47101 17 5.77343C17 6.07586 16.9042 6.32936 16.7125 6.53394C16.5208 6.73852 16.2833 6.84081 16 6.84081H14.1C13.75 8.12167 13.225 9.43811 12.525 10.7901C11.825 12.1421 11.1333 13.1739 10.45 13.8855L12.85 16.5006L12.1 18.6887L9.05 15.3532ZM15.7 18.7955H19.3L17.5 13.3518L15.7 18.7955Z" fill="#A317D4"/>
</svg>
