<svg width="24" height="27" viewBox="0 0 24 27" fill="none" xmlns="http://www.w3.org/2000/svg">
<path d="M17.0001 25.5366C16.7168 25.5366 16.4793 25.4299 16.2876 25.2164C16.0959 25.0029 16.0001 24.745 16.0001 24.4425C16.0001 24.1401 16.0959 23.8866 16.2876 23.682C16.4793 23.4775 16.7168 23.3752 17.0001 23.3752C18.1001 23.3752 19.0418 22.9571 19.8251 22.121C20.6084 21.2849 21.0001 20.2798 21.0001 19.1056C21.0001 18.8032 21.1001 18.5453 21.3001 18.3318C21.5001 18.1183 21.7418 18.0116 22.0251 18.0116C22.3084 18.0116 22.5459 18.1183 22.7376 18.3318C22.9293 18.5453 23.0251 18.8032 23.0251 19.1056C23.0251 20.8846 22.4376 22.4012 21.2626 23.6554C20.0876 24.9095 18.6668 25.5366 17.0001 25.5366ZM2.0001 9.49921C1.71676 9.49921 1.4751 9.39692 1.2751 9.19234C1.0751 8.98775 0.975098 8.73425 0.975098 8.43183C0.975098 6.65286 1.5626 5.13629 2.7376 3.88211C3.9126 2.62794 5.33343 2.00085 7.0001 2.00085C7.28343 2.00085 7.5251 2.10315 7.7251 2.30773C7.9251 2.51231 8.0251 2.76581 8.0251 3.06824C8.0251 3.37066 7.9251 3.62861 7.7251 3.84209C7.5251 4.05556 7.28343 4.1623 7.0001 4.1623C5.9001 4.1623 4.95843 4.58036 4.1751 5.41647C3.39176 6.25259 3.0001 7.25771 3.0001 8.43183C3.0001 8.73425 2.90426 8.98775 2.7126 9.19234C2.52093 9.39692 2.28343 9.49921 2.0001 9.49921ZM19.2251 5.68332C19.4251 5.8968 19.5251 6.14585 19.5251 6.43049C19.5251 6.71512 19.4251 6.96418 19.2251 7.17765L12.8751 13.9822C12.6918 14.1957 12.4626 14.298 12.1876 14.2891C11.9126 14.2802 11.6751 14.1779 11.4751 13.9822C11.2751 13.7687 11.1751 13.5152 11.1751 13.2217C11.1751 12.9282 11.2751 12.6747 11.4751 12.4612L17.8251 5.68332C18.0251 5.46984 18.2584 5.36311 18.5251 5.36311C18.7918 5.36311 19.0251 5.46984 19.2251 5.68332ZM21.0001 9.07226C21.2001 9.28573 21.3001 9.53924 21.3001 9.83277C21.3001 10.1263 21.2001 10.3798 21.0001 10.5933L15.3501 16.624C15.1668 16.8197 14.9376 16.9175 14.6626 16.9175C14.3876 16.9175 14.1501 16.8197 13.9501 16.624C13.7501 16.4105 13.6459 16.157 13.6376 15.8635C13.6293 15.5699 13.7251 15.3164 13.9251 15.103L19.5751 9.07226C19.7751 8.85878 20.0126 8.75204 20.2876 8.75204C20.5626 8.75204 20.8001 8.85878 21.0001 9.07226ZM5.2751 20.9469C3.75843 19.328 3.0001 17.38 3.0001 15.103C3.0001 12.8259 3.75843 10.8779 5.2751 9.25905L7.5751 6.80407C7.7751 6.59059 8.00843 6.48386 8.2751 6.48386C8.54176 6.48386 8.7751 6.59059 8.9751 6.80407L9.7501 7.63129C9.86676 7.75582 9.96676 7.88479 10.0501 8.01822C10.1334 8.15164 10.2168 8.28951 10.3001 8.43183L14.0001 4.45583C14.2001 4.24236 14.4376 4.13562 14.7126 4.13562C14.9876 4.13562 15.2251 4.24236 15.4251 4.45583C15.6251 4.66931 15.7251 4.92281 15.7251 5.21634C15.7251 5.50987 15.6251 5.76337 15.4251 5.97685L11.1001 10.5933L8.9751 12.8348L9.4501 13.3418C10.2168 14.1601 10.5834 15.1385 10.5501 16.2771C10.5168 17.4156 10.1084 18.4029 9.3251 19.2391L9.3001 19.2657C9.11676 19.4614 8.8876 19.5593 8.6126 19.5593C8.3376 19.5593 8.1001 19.4614 7.9001 19.2657C7.7001 19.0523 7.6001 18.7988 7.6001 18.5052C7.6001 18.2117 7.7001 17.9582 7.9001 17.7447C8.28343 17.3356 8.49593 16.8508 8.5376 16.2904C8.57926 15.73 8.40843 15.2453 8.0251 14.8361L6.8501 13.6086C6.6501 13.3952 6.5501 13.1416 6.5501 12.8481C6.5501 12.5546 6.6501 12.3011 6.8501 12.0876L8.2751 10.5933C8.4751 10.3798 8.5751 10.1263 8.5751 9.83277C8.5751 9.53924 8.4751 9.28573 8.2751 9.07226L6.6751 10.7801C5.54176 11.9898 4.9751 13.4352 4.9751 15.1163C4.9751 16.7974 5.54176 18.2428 6.6751 19.4525C7.80843 20.6622 9.16676 21.2671 10.7501 21.2671C12.3334 21.2671 13.6918 20.6622 14.8251 19.4525L20.8001 13.0483C21.0001 12.8348 21.2376 12.728 21.5126 12.728C21.7876 12.728 22.0251 12.8348 22.2251 13.0483C22.4251 13.2617 22.5251 13.5152 22.5251 13.8088C22.5251 14.1023 22.4251 14.3558 22.2251 14.5693L16.2251 20.9469C14.7084 22.5657 12.8834 23.3752 10.7501 23.3752C8.61676 23.3752 6.79176 22.5657 5.2751 20.9469Z" fill="#CD47E3"/>
</svg>
