<svg width="329" height="48" viewBox="0 0 329 48" fill="none" xmlns="http://www.w3.org/2000/svg">
<path d="M16.52 2.92C20.808 2.92 24.504 4.28 27.608 7L23.624 11.176C22.44 10.28 21.336 9.64 20.312 9.256C19.32 8.84 18.168 8.632 16.856 8.632C14.392 8.632 12.424 9.608 10.952 11.56C9.48 13.48 8.744 16.408 8.744 20.344C8.744 24.6 9.304 27.624 10.424 29.416C11.544 31.176 13.288 32.056 15.656 32.056C17.32 32.056 18.824 31.688 20.168 30.952V23.416H15.848L15.08 17.848H27.8V34.312C26.072 35.432 24.168 36.296 22.088 36.904C20.008 37.512 17.928 37.816 15.848 37.816C10.792 37.816 6.984 36.344 4.424 33.4C1.864 30.424 0.584 26.072 0.584 20.344C0.584 16.696 1.272 13.56 2.648 10.936C4.056 8.312 5.96 6.328 8.36 4.984C10.792 3.608 13.512 2.92 16.52 2.92ZM54.4175 37H47.8415L47.5055 33.784C45.6495 36.472 43.0735 37.816 39.7775 37.816C37.4415 37.816 35.6655 37.112 34.4495 35.704C33.2655 34.296 32.6735 32.328 32.6735 29.8V11.512H40.2575V28.84C40.2575 30.088 40.4495 30.968 40.8335 31.48C41.2495 31.96 41.8735 32.2 42.7055 32.2C44.3055 32.2 45.6815 31.208 46.8335 29.224V11.512H54.4175V37ZM69.3583 10.696C71.1823 10.696 72.8943 10.968 74.4943 11.512C76.0943 12.056 77.5023 12.824 78.7183 13.816L75.9343 18.088C73.8543 16.776 71.7583 16.12 69.6463 16.12C68.6543 16.12 67.8863 16.296 67.3423 16.648C66.8303 16.968 66.5743 17.432 66.5743 18.04C66.5743 18.52 66.6863 18.92 66.9103 19.24C67.1663 19.528 67.6623 19.832 68.3983 20.152C69.1343 20.472 70.2703 20.856 71.8063 21.304C74.4623 22.072 76.4303 23.08 77.7103 24.328C79.0223 25.544 79.6783 27.24 79.6783 29.416C79.6783 31.144 79.1823 32.648 78.1903 33.928C77.1983 35.176 75.8383 36.136 74.1103 36.808C72.3823 37.48 70.4623 37.816 68.3503 37.816C66.2063 37.816 64.2063 37.48 62.3503 36.808C60.5263 36.136 58.9743 35.208 57.6943 34.024L61.3903 29.896C63.5343 31.56 65.7903 32.392 68.1583 32.392C69.3103 32.392 70.2063 32.184 70.8463 31.768C71.5183 31.352 71.8543 30.76 71.8543 29.992C71.8543 29.384 71.7263 28.904 71.4703 28.552C71.2143 28.2 70.7183 27.88 69.9823 27.592C69.2463 27.272 68.0783 26.888 66.4783 26.44C63.9503 25.704 62.0623 24.68 60.8143 23.368C59.5663 22.056 58.9423 20.424 58.9423 18.472C58.9423 17 59.3583 15.688 60.1903 14.536C61.0543 13.352 62.2703 12.424 63.8383 11.752C65.4383 11.048 67.2783 10.696 69.3583 10.696ZM99.5694 35.8C98.6414 36.44 97.5534 36.936 96.3054 37.288C95.0894 37.64 93.8734 37.816 92.6574 37.816C87.0894 37.784 84.3054 34.712 84.3054 28.6V16.792H80.7054V11.512H84.3054V5.992L91.8894 5.128V11.512H97.7454L96.9294 16.792H91.8894V28.504C91.8894 29.688 92.0814 30.536 92.4654 31.048C92.8494 31.56 93.4574 31.816 94.2894 31.816C95.1534 31.816 96.0654 31.544 97.0254 31L99.5694 35.8ZM121.795 29.608C121.795 30.568 121.923 31.272 122.179 31.72C122.467 32.168 122.915 32.504 123.523 32.728L121.939 37.672C120.371 37.544 119.091 37.208 118.099 36.664C117.107 36.088 116.339 35.192 115.795 33.976C114.131 36.536 111.571 37.816 108.115 37.816C105.587 37.816 103.571 37.08 102.067 35.608C100.563 34.136 99.8105 32.216 99.8105 29.848C99.8105 27.064 100.835 24.936 102.883 23.464C104.931 21.992 107.891 21.256 111.763 21.256H114.355V20.152C114.355 18.648 114.035 17.624 113.395 17.08C112.755 16.504 111.635 16.216 110.035 16.216C109.203 16.216 108.195 16.344 107.011 16.6C105.827 16.824 104.611 17.144 103.363 17.56L101.635 12.568C103.235 11.96 104.867 11.496 106.531 11.176C108.227 10.856 109.795 10.696 111.234 10.696C114.883 10.696 117.555 11.448 119.251 12.952C120.947 14.456 121.795 16.712 121.795 19.72V29.608ZM110.323 32.392C112.051 32.392 113.395 31.576 114.355 29.944V25.432H112.483C110.755 25.432 109.459 25.736 108.595 26.344C107.763 26.952 107.347 27.896 107.347 29.176C107.347 30.2 107.603 31 108.115 31.576C108.659 32.12 109.395 32.392 110.323 32.392ZM149.068 11.512L141.052 37H132.076L123.868 11.512H132.124L136.636 31.24L141.34 11.512H149.068ZM162.407 10.696C166.311 10.696 169.367 11.896 171.575 14.296C173.783 16.664 174.887 19.992 174.887 24.28C174.887 27 174.375 29.384 173.351 31.432C172.359 33.448 170.919 35.016 169.031 36.136C167.175 37.256 164.967 37.816 162.407 37.816C158.535 37.816 155.479 36.632 153.239 34.264C151.031 31.864 149.927 28.52 149.927 24.232C149.927 21.512 150.423 19.144 151.415 17.128C152.439 15.08 153.879 13.496 155.735 12.376C157.623 11.256 159.847 10.696 162.407 10.696ZM162.407 16.264C160.871 16.264 159.719 16.92 158.951 18.232C158.183 19.512 157.799 21.512 157.799 24.232C157.799 27.016 158.167 29.048 158.903 30.328C159.671 31.608 160.839 32.248 162.407 32.248C163.943 32.248 165.095 31.608 165.863 30.328C166.631 29.016 167.015 27 167.015 24.28C167.015 21.496 166.631 19.464 165.863 18.184C165.127 16.904 163.975 16.264 162.407 16.264ZM205.333 2.92C209.621 2.92 213.317 4.28 216.421 7L212.437 11.176C211.253 10.28 210.149 9.64 209.125 9.256C208.133 8.84 206.981 8.632 205.669 8.632C203.205 8.632 201.237 9.608 199.765 11.56C198.293 13.48 197.557 16.408 197.557 20.344C197.557 24.6 198.117 27.624 199.237 29.416C200.357 31.176 202.101 32.056 204.469 32.056C206.133 32.056 207.637 31.688 208.981 30.952V23.416H204.661L203.893 17.848H216.613V34.312C214.885 35.432 212.981 36.296 210.901 36.904C208.821 37.512 206.741 37.816 204.661 37.816C199.605 37.816 195.797 36.344 193.237 33.4C190.677 30.424 189.396 26.072 189.396 20.344C189.396 16.696 190.085 13.56 191.461 10.936C192.869 8.312 194.773 6.328 197.173 4.984C199.605 3.608 202.325 2.92 205.333 2.92ZM232.766 10.696C236.67 10.696 239.726 11.896 241.934 14.296C244.142 16.664 245.246 19.992 245.246 24.28C245.246 27 244.734 29.384 243.71 31.432C242.718 33.448 241.278 35.016 239.39 36.136C237.534 37.256 235.326 37.816 232.766 37.816C228.894 37.816 225.838 36.632 223.598 34.264C221.39 31.864 220.286 28.52 220.286 24.232C220.286 21.512 220.782 19.144 221.774 17.128C222.798 15.08 224.238 13.496 226.094 12.376C227.982 11.256 230.206 10.696 232.766 10.696ZM232.766 16.264C231.23 16.264 230.078 16.92 229.31 18.232C228.542 19.512 228.158 21.512 228.158 24.232C228.158 27.016 228.526 29.048 229.262 30.328C230.03 31.608 231.198 32.248 232.766 32.248C234.302 32.248 235.454 31.608 236.222 30.328C236.99 29.016 237.374 27 237.374 24.28C237.374 21.496 236.99 19.464 236.222 18.184C235.486 16.904 234.334 16.264 232.766 16.264ZM272.605 1.384V37H265.885L265.501 34.024C263.709 36.552 261.293 37.816 258.253 37.816C255.085 37.816 252.669 36.6 251.005 34.168C249.373 31.736 248.557 28.408 248.557 24.184C248.557 21.592 248.989 19.272 249.853 17.224C250.717 15.176 251.933 13.576 253.501 12.424C255.101 11.272 256.925 10.696 258.973 10.696C261.405 10.696 263.421 11.496 265.021 13.096V0.567997L272.605 1.384ZM260.605 32.248C262.365 32.248 263.837 31.288 265.021 29.368V18.376C264.413 17.64 263.789 17.096 263.149 16.744C262.541 16.392 261.837 16.216 261.037 16.216C259.629 16.216 258.509 16.872 257.677 18.184C256.845 19.496 256.429 21.512 256.429 24.232C256.429 27.208 256.781 29.288 257.485 30.472C258.221 31.656 259.261 32.248 260.605 32.248ZM289.579 10.696C293.483 10.696 296.539 11.896 298.747 14.296C300.955 16.664 302.059 19.992 302.059 24.28C302.059 27 301.547 29.384 300.523 31.432C299.531 33.448 298.091 35.016 296.203 36.136C294.347 37.256 292.139 37.816 289.579 37.816C285.707 37.816 282.651 36.632 280.411 34.264C278.203 31.864 277.099 28.52 277.099 24.232C277.099 21.512 277.595 19.144 278.587 17.128C279.611 15.08 281.051 13.496 282.907 12.376C284.795 11.256 287.019 10.696 289.579 10.696ZM289.579 16.264C288.043 16.264 286.891 16.92 286.123 18.232C285.355 19.512 284.971 21.512 284.971 24.232C284.971 27.016 285.339 29.048 286.075 30.328C286.843 31.608 288.011 32.248 289.579 32.248C291.115 32.248 292.267 31.608 293.035 30.328C293.803 29.016 294.187 27 294.187 24.28C294.187 21.496 293.803 19.464 293.035 18.184C292.299 16.904 291.147 16.264 289.579 16.264ZM320.259 37.048C319.235 40.344 317.555 42.872 315.219 44.632C312.915 46.424 309.811 47.432 305.907 47.656L305.091 42.328C307.523 42.008 309.315 41.464 310.467 40.696C311.651 39.928 312.595 38.696 313.299 37H310.707L302.931 11.512H310.995L315.555 32.152L320.547 11.512H328.371L320.259 37.048Z" fill="#141414"/>
</svg>
