<svg width="1159" height="48" viewBox="0 0 1159 48" fill="none" xmlns="http://www.w3.org/2000/svg">
<path d="M16.52 2.91999C20.808 2.91999 24.504 4.27999 27.608 7L23.624 11.176C22.44 10.28 21.336 9.63999 20.312 9.256C19.32 8.84 18.168 8.632 16.856 8.632C14.392 8.632 12.424 9.608 10.952 11.56C9.47999 13.48 8.74399 16.408 8.74399 20.344C8.74399 24.6 9.30398 27.624 10.424 29.416C11.544 31.176 13.288 32.056 15.656 32.056C17.32 32.056 18.824 31.688 20.168 30.952V23.416H15.848L15.08 17.848H27.8V34.312C26.072 35.432 24.168 36.296 22.088 36.904C20.008 37.512 17.928 37.816 15.848 37.816C10.792 37.816 6.98398 36.344 4.42398 33.4C1.86398 30.424 0.583984 26.072 0.583984 20.344C0.583984 16.696 1.27198 13.56 2.64798 10.936C4.05598 8.312 5.95998 6.328 8.35998 4.98399C10.792 3.60799 13.512 2.91999 16.52 2.91999Z" fill="#141414"/>
<path d="M54.4175 37H47.8415L47.5055 33.784C45.6495 36.472 43.0735 37.816 39.7775 37.816C37.4415 37.816 35.6655 37.112 34.4495 35.704C33.2655 34.296 32.6735 32.328 32.6735 29.8V11.512H40.2575V28.84C40.2575 30.088 40.4495 30.968 40.8335 31.48C41.2495 31.96 41.8735 32.2 42.7055 32.2C44.3055 32.2 45.6815 31.208 46.8335 29.224V11.512H54.4175V37Z" fill="#141414"/>
<path d="M69.3582 10.696C71.1822 10.696 72.8942 10.968 74.4942 11.512C76.0942 12.056 77.5022 12.824 78.7182 13.816L75.9342 18.088C73.8542 16.776 71.7582 16.12 69.6462 16.12C68.6542 16.12 67.8862 16.296 67.3422 16.648C66.8302 16.968 66.5742 17.432 66.5742 18.04C66.5742 18.52 66.6862 18.92 66.9102 19.24C67.1662 19.528 67.6622 19.832 68.3982 20.152C69.1342 20.472 70.2702 20.856 71.8062 21.304C74.4622 22.072 76.4302 23.08 77.7102 24.328C79.0222 25.544 79.6782 27.24 79.6782 29.416C79.6782 31.144 79.1822 32.648 78.1902 33.928C77.1982 35.176 75.8382 36.136 74.1102 36.808C72.3822 37.48 70.4622 37.816 68.3502 37.816C66.2062 37.816 64.2062 37.48 62.3502 36.808C60.5262 36.136 58.9742 35.208 57.6942 34.024L61.3902 29.896C63.5342 31.56 65.7902 32.392 68.1582 32.392C69.3102 32.392 70.2062 32.184 70.8462 31.768C71.5182 31.352 71.8542 30.76 71.8542 29.992C71.8542 29.384 71.7262 28.904 71.4702 28.552C71.2142 28.2 70.7182 27.88 69.9822 27.592C69.2462 27.272 68.0782 26.888 66.4782 26.44C63.9502 25.704 62.0622 24.68 60.8142 23.368C59.5662 22.056 58.9422 20.424 58.9422 18.472C58.9422 17 59.3582 15.688 60.1902 14.536C61.0542 13.352 62.2702 12.424 63.8382 11.752C65.4382 11.048 67.2782 10.696 69.3582 10.696Z" fill="#141414"/>
<path d="M99.5694 35.8C98.6414 36.44 97.5534 36.936 96.3054 37.288C95.0894 37.64 93.8734 37.816 92.6574 37.816C87.0894 37.784 84.3054 34.712 84.3054 28.6V16.792H80.7054V11.512H84.3054V5.99199L91.8894 5.12799V11.512H97.7454L96.9294 16.792H91.8894V28.504C91.8894 29.688 92.0814 30.536 92.4654 31.048C92.8494 31.56 93.4574 31.816 94.2894 31.816C95.1534 31.816 96.0654 31.544 97.0254 31L99.5694 35.8Z" fill="#141414"/>
<path d="M121.794 29.608C121.794 30.568 121.922 31.272 122.178 31.72C122.466 32.168 122.914 32.504 123.522 32.728L121.938 37.672C120.37 37.544 119.09 37.208 118.098 36.664C117.106 36.088 116.338 35.192 115.794 33.976C114.13 36.536 111.57 37.816 108.114 37.816C105.586 37.816 103.57 37.08 102.066 35.608C100.562 34.136 99.8105 32.216 99.8105 29.848C99.8105 27.064 100.834 24.936 102.882 23.464C104.93 21.992 107.89 21.256 111.762 21.256H114.354V20.152C114.354 18.648 114.034 17.624 113.394 17.08C112.754 16.504 111.634 16.216 110.034 16.216C109.202 16.216 108.194 16.344 107.01 16.6C105.826 16.824 104.61 17.144 103.362 17.56L101.634 12.568C103.234 11.96 104.866 11.496 106.53 11.176C108.226 10.856 109.794 10.696 111.234 10.696C114.882 10.696 117.554 11.448 119.25 12.952C120.946 14.456 121.794 16.712 121.794 19.72V29.608ZM110.322 32.392C112.05 32.392 113.394 31.576 114.354 29.944V25.432H112.482C110.754 25.432 109.458 25.736 108.594 26.344C107.762 26.952 107.346 27.896 107.346 29.176C107.346 30.2 107.602 31 108.114 31.576C108.658 32.12 109.394 32.392 110.322 32.392Z" fill="#141414"/>
<path d="M149.068 11.512L141.052 37H132.076L123.868 11.512H132.124L136.636 31.24L141.34 11.512H149.068Z" fill="#141414"/>
<path d="M162.407 10.696C166.311 10.696 169.367 11.896 171.575 14.296C173.783 16.664 174.887 19.992 174.887 24.28C174.887 27 174.375 29.384 173.351 31.432C172.359 33.448 170.919 35.016 169.031 36.136C167.175 37.256 164.967 37.816 162.407 37.816C158.535 37.816 155.479 36.632 153.239 34.264C151.031 31.864 149.927 28.52 149.927 24.232C149.927 21.512 150.423 19.144 151.415 17.128C152.439 15.08 153.879 13.496 155.735 12.376C157.623 11.256 159.847 10.696 162.407 10.696ZM162.407 16.264C160.871 16.264 159.719 16.92 158.951 18.232C158.183 19.512 157.799 21.512 157.799 24.232C157.799 27.016 158.167 29.048 158.903 30.328C159.671 31.608 160.839 32.248 162.407 32.248C163.943 32.248 165.095 31.608 165.863 30.328C166.631 29.016 167.015 27 167.015 24.28C167.015 21.496 166.631 19.464 165.863 18.184C165.127 16.904 163.975 16.264 162.407 16.264Z" fill="#141414"/>
<path d="M205.332 2.91999C209.62 2.91999 213.316 4.27999 216.42 7L212.436 11.176C211.252 10.28 210.148 9.63999 209.124 9.256C208.132 8.84 206.98 8.632 205.668 8.632C203.204 8.632 201.236 9.608 199.764 11.56C198.292 13.48 197.556 16.408 197.556 20.344C197.556 24.6 198.116 27.624 199.236 29.416C200.356 31.176 202.1 32.056 204.468 32.056C206.132 32.056 207.636 31.688 208.98 30.952V23.416H204.66L203.892 17.848H216.612V34.312C214.884 35.432 212.98 36.296 210.9 36.904C208.82 37.512 206.74 37.816 204.66 37.816C199.604 37.816 195.796 36.344 193.236 33.4C190.676 30.424 189.396 26.072 189.396 20.344C189.396 16.696 190.084 13.56 191.46 10.936C192.868 8.312 194.772 6.328 197.172 4.98399C199.604 3.60799 202.324 2.91999 205.332 2.91999Z" fill="#141414"/>
<path d="M232.766 10.696C236.67 10.696 239.726 11.896 241.934 14.296C244.142 16.664 245.246 19.992 245.246 24.28C245.246 27 244.734 29.384 243.71 31.432C242.718 33.448 241.278 35.016 239.39 36.136C237.534 37.256 235.326 37.816 232.766 37.816C228.894 37.816 225.838 36.632 223.598 34.264C221.39 31.864 220.286 28.52 220.286 24.232C220.286 21.512 220.782 19.144 221.774 17.128C222.798 15.08 224.238 13.496 226.094 12.376C227.982 11.256 230.206 10.696 232.766 10.696ZM232.766 16.264C231.23 16.264 230.078 16.92 229.31 18.232C228.542 19.512 228.158 21.512 228.158 24.232C228.158 27.016 228.526 29.048 229.262 30.328C230.03 31.608 231.198 32.248 232.766 32.248C234.302 32.248 235.454 31.608 236.222 30.328C236.99 29.016 237.374 27 237.374 24.28C237.374 21.496 236.99 19.464 236.222 18.184C235.486 16.904 234.334 16.264 232.766 16.264Z" fill="#141414"/>
<path d="M272.605 1.38399V37H265.885L265.501 34.024C263.709 36.552 261.293 37.816 258.253 37.816C255.085 37.816 252.669 36.6 251.005 34.168C249.373 31.736 248.557 28.408 248.557 24.184C248.557 21.592 248.989 19.272 249.853 17.224C250.717 15.176 251.933 13.576 253.501 12.424C255.101 11.272 256.925 10.696 258.973 10.696C261.405 10.696 263.421 11.496 265.021 13.096V0.567993L272.605 1.38399ZM260.605 32.248C262.365 32.248 263.837 31.288 265.021 29.368V18.376C264.413 17.64 263.789 17.096 263.149 16.744C262.541 16.392 261.837 16.216 261.037 16.216C259.629 16.216 258.509 16.872 257.677 18.184C256.845 19.496 256.429 21.512 256.429 24.232C256.429 27.208 256.781 29.288 257.485 30.472C258.221 31.656 259.261 32.248 260.605 32.248Z" fill="#141414"/>
<path d="M289.578 10.696C293.482 10.696 296.538 11.896 298.746 14.296C300.954 16.664 302.058 19.992 302.058 24.28C302.058 27 301.546 29.384 300.522 31.432C299.53 33.448 298.09 35.016 296.202 36.136C294.346 37.256 292.138 37.816 289.578 37.816C285.706 37.816 282.65 36.632 280.41 34.264C278.202 31.864 277.098 28.52 277.098 24.232C277.098 21.512 277.594 19.144 278.586 17.128C279.61 15.08 281.05 13.496 282.906 12.376C284.794 11.256 287.018 10.696 289.578 10.696ZM289.578 16.264C288.042 16.264 286.89 16.92 286.122 18.232C285.354 19.512 284.97 21.512 284.97 24.232C284.97 27.016 285.338 29.048 286.074 30.328C286.842 31.608 288.01 32.248 289.578 32.248C291.114 32.248 292.266 31.608 293.034 30.328C293.802 29.016 294.186 27 294.186 24.28C294.186 21.496 293.802 19.464 293.034 18.184C292.298 16.904 291.146 16.264 289.578 16.264Z" fill="#141414"/>
<path d="M320.259 37.048C319.235 40.344 317.555 42.872 315.219 44.632C312.915 46.424 309.811 47.432 305.907 47.656L305.091 42.328C307.523 42.008 309.315 41.464 310.467 40.696C311.651 39.928 312.595 38.696 313.299 37H310.707L302.931 11.512H310.995L315.555 32.152L320.547 11.512H328.371L320.259 37.048Z" fill="#141414"/>
<path d="M849.514 14.598L849.316 15.966H844.51V20.016H848.686V21.384H844.51V25.632H849.658V27H842.8V14.598H849.514Z" fill="#141414"/>
<path d="M855.979 21.924L859.273 27H857.275L854.953 22.986L852.595 27H850.723L854.035 21.996L851.101 17.514H853.045L855.025 20.988L857.023 17.514H858.895L855.979 21.924Z" fill="#141414"/>
<path d="M865.435 17.298C866.647 17.298 867.535 17.73 868.099 18.594C868.663 19.458 868.945 20.676 868.945 22.248C868.945 23.736 868.621 24.936 867.973 25.848C867.325 26.76 866.407 27.216 865.219 27.216C864.163 27.216 863.335 26.856 862.735 26.136V30.636L861.079 30.834V17.514H862.501L862.627 18.792C862.975 18.312 863.395 17.946 863.887 17.694C864.379 17.43 864.895 17.298 865.435 17.298ZM864.823 25.866C866.383 25.866 867.163 24.66 867.163 22.248C867.163 19.824 866.449 18.612 865.021 18.612C864.553 18.612 864.127 18.75 863.743 19.026C863.359 19.302 863.023 19.656 862.735 20.088V24.714C862.975 25.086 863.275 25.374 863.635 25.578C863.995 25.77 864.391 25.866 864.823 25.866Z" fill="#141414"/>
<path d="M878.931 21.978C878.931 22.254 878.919 22.536 878.895 22.824H872.847C872.919 23.868 873.183 24.636 873.639 25.128C874.095 25.62 874.683 25.866 875.403 25.866C875.859 25.866 876.279 25.8 876.663 25.668C877.047 25.536 877.449 25.326 877.869 25.038L878.589 26.028C877.581 26.82 876.477 27.216 875.277 27.216C873.957 27.216 872.925 26.784 872.181 25.92C871.449 25.056 871.083 23.868 871.083 22.356C871.083 21.372 871.239 20.502 871.551 19.746C871.875 18.978 872.331 18.378 872.919 17.946C873.519 17.514 874.221 17.298 875.025 17.298C876.285 17.298 877.251 17.712 877.923 18.54C878.595 19.368 878.931 20.514 878.931 21.978ZM877.293 21.492C877.293 20.556 877.107 19.842 876.735 19.35C876.363 18.858 875.805 18.612 875.061 18.612C873.705 18.612 872.967 19.608 872.847 21.6H877.293V21.492Z" fill="#141414"/>
<path d="M885.697 17.298C886.033 17.298 886.345 17.334 886.633 17.406L886.327 19.026C886.039 18.954 885.763 18.918 885.499 18.918C884.911 18.918 884.437 19.134 884.077 19.566C883.717 19.998 883.435 20.67 883.231 21.582V27H881.575V17.514H882.997L883.159 19.44C883.411 18.732 883.753 18.198 884.185 17.838C884.617 17.478 885.121 17.298 885.697 17.298Z" fill="#141414"/>
<path d="M890.175 17.514V27H888.519V17.514H890.175ZM889.329 12.96C889.677 12.96 889.959 13.068 890.175 13.284C890.391 13.5 890.499 13.77 890.499 14.094C890.499 14.418 890.391 14.688 890.175 14.904C889.959 15.108 889.677 15.21 889.329 15.21C888.993 15.21 888.717 15.108 888.501 14.904C888.285 14.688 888.177 14.418 888.177 14.094C888.177 13.77 888.285 13.5 888.501 13.284C888.717 13.068 888.993 12.96 889.329 12.96Z" fill="#141414"/>
<path d="M900.763 21.978C900.763 22.254 900.751 22.536 900.727 22.824H894.679C894.751 23.868 895.015 24.636 895.471 25.128C895.927 25.62 896.515 25.866 897.235 25.866C897.691 25.866 898.111 25.8 898.495 25.668C898.879 25.536 899.281 25.326 899.701 25.038L900.421 26.028C899.413 26.82 898.309 27.216 897.109 27.216C895.789 27.216 894.757 26.784 894.013 25.92C893.281 25.056 892.915 23.868 892.915 22.356C892.915 21.372 893.071 20.502 893.383 19.746C893.707 18.978 894.163 18.378 894.751 17.946C895.351 17.514 896.053 17.298 896.857 17.298C898.117 17.298 899.083 17.712 899.755 18.54C900.427 19.368 900.763 20.514 900.763 21.978ZM899.125 21.492C899.125 20.556 898.939 19.842 898.567 19.35C898.195 18.858 897.637 18.612 896.893 18.612C895.537 18.612 894.799 19.608 894.679 21.6H899.125V21.492ZM894.625 15.588L893.923 14.778L896.353 12.744H897.451L899.899 14.778L899.179 15.588L896.911 14.076L894.625 15.588Z" fill="#141414"/>
<path d="M907.871 17.298C908.735 17.298 909.407 17.556 909.887 18.072C910.379 18.588 910.625 19.296 910.625 20.196V27H908.969V20.43C908.969 19.758 908.843 19.284 908.591 19.008C908.339 18.732 907.967 18.594 907.475 18.594C906.971 18.594 906.527 18.738 906.143 19.026C905.759 19.314 905.399 19.728 905.063 20.268V27H903.407V17.514H904.829L904.973 18.918C905.309 18.414 905.723 18.018 906.215 17.73C906.719 17.442 907.271 17.298 907.871 17.298Z" fill="#141414"/>
<path d="M917.41 17.298C917.974 17.298 918.49 17.382 918.958 17.55C919.426 17.706 919.876 17.964 920.308 18.324L919.516 19.368C919.18 19.128 918.85 18.954 918.526 18.846C918.214 18.726 917.866 18.666 917.482 18.666C916.714 18.666 916.114 18.972 915.682 19.584C915.262 20.196 915.052 21.102 915.052 22.302C915.052 23.502 915.262 24.39 915.682 24.966C916.102 25.53 916.702 25.812 917.482 25.812C917.854 25.812 918.196 25.758 918.508 25.65C918.82 25.53 919.168 25.344 919.552 25.092L920.308 26.172C919.444 26.868 918.478 27.216 917.41 27.216C916.126 27.216 915.112 26.784 914.368 25.92C913.636 25.056 913.27 23.862 913.27 22.338C913.27 21.33 913.438 20.448 913.774 19.692C914.11 18.936 914.584 18.348 915.196 17.928C915.82 17.508 916.558 17.298 917.41 17.298Z" fill="#141414"/>
<path d="M924.206 17.514V27H922.55V17.514H924.206ZM923.36 12.96C923.708 12.96 923.99 13.068 924.206 13.284C924.422 13.5 924.53 13.77 924.53 14.094C924.53 14.418 924.422 14.688 924.206 14.904C923.99 15.108 923.708 15.21 923.36 15.21C923.024 15.21 922.748 15.108 922.532 14.904C922.316 14.688 922.208 14.418 922.208 14.094C922.208 13.77 922.316 13.5 922.532 13.284C922.748 13.068 923.024 12.96 923.36 12.96Z" fill="#141414"/>
<path d="M934.02 24.786C934.02 25.17 934.086 25.458 934.218 25.65C934.35 25.83 934.548 25.968 934.812 26.064L934.434 27.216C933.942 27.156 933.546 27.018 933.246 26.802C932.946 26.586 932.724 26.25 932.58 25.794C931.944 26.742 931.002 27.216 929.754 27.216C928.818 27.216 928.08 26.952 927.54 26.424C927 25.896 926.73 25.206 926.73 24.354C926.73 23.346 927.09 22.572 927.81 22.032C928.542 21.492 929.574 21.222 930.906 21.222H932.364V20.52C932.364 19.848 932.202 19.368 931.878 19.08C931.554 18.792 931.056 18.648 930.384 18.648C929.688 18.648 928.836 18.816 927.828 19.152L927.414 17.946C928.59 17.514 929.682 17.298 930.69 17.298C931.806 17.298 932.64 17.574 933.192 18.126C933.744 18.666 934.02 19.44 934.02 20.448V24.786ZM930.132 25.974C931.08 25.974 931.824 25.482 932.364 24.498V22.32H931.122C929.37 22.32 928.494 22.968 928.494 24.264C928.494 24.828 928.632 25.254 928.908 25.542C929.184 25.83 929.592 25.974 930.132 25.974Z" fill="#141414"/>
<path d="M977.8 27V14.598H984.388L984.19 15.966H979.51V20.196H983.56V21.546H979.51V27H977.8Z" fill="#141414"/>
<path d="M989.483 17.298C990.815 17.298 991.847 17.742 992.579 18.63C993.323 19.518 993.695 20.724 993.695 22.248C993.695 23.232 993.527 24.102 993.191 24.858C992.855 25.602 992.369 26.184 991.733 26.604C991.097 27.012 990.341 27.216 989.465 27.216C988.133 27.216 987.095 26.772 986.351 25.884C985.607 24.996 985.235 23.79 985.235 22.266C985.235 21.282 985.403 20.418 985.739 19.674C986.075 18.918 986.561 18.336 987.197 17.928C987.833 17.508 988.595 17.298 989.483 17.298ZM989.483 18.63C987.839 18.63 987.017 19.842 987.017 22.266C987.017 24.678 987.833 25.884 989.465 25.884C991.097 25.884 991.913 24.672 991.913 22.248C991.913 19.836 991.103 18.63 989.483 18.63Z" fill="#141414"/>
<path d="M1000.55 17.298C1000.89 17.298 1001.2 17.334 1001.49 17.406L1001.18 19.026C1000.89 18.954 1000.62 18.918 1000.35 18.918C999.767 18.918 999.293 19.134 998.933 19.566C998.573 19.998 998.291 20.67 998.087 21.582V27H996.431V17.514H997.853L998.015 19.44C998.267 18.732 998.609 18.198 999.041 17.838C999.473 17.478 999.977 17.298 1000.55 17.298Z" fill="#141414"/>
<path d="M1012.9 17.298C1013.68 17.298 1014.3 17.562 1014.77 18.09C1015.24 18.606 1015.47 19.308 1015.47 20.196V27H1013.81V20.43C1013.81 19.206 1013.37 18.594 1012.48 18.594C1012.01 18.594 1011.62 18.732 1011.29 19.008C1010.97 19.272 1010.62 19.692 1010.25 20.268V27H1008.59V20.43C1008.59 19.206 1008.15 18.594 1007.26 18.594C1006.78 18.594 1006.38 18.732 1006.06 19.008C1005.73 19.284 1005.39 19.704 1005.03 20.268V27H1003.37V17.514H1004.8L1004.94 18.9C1005.65 17.832 1006.56 17.298 1007.68 17.298C1008.26 17.298 1008.76 17.448 1009.17 17.748C1009.59 18.048 1009.89 18.468 1010.07 19.008C1010.44 18.456 1010.85 18.036 1011.29 17.748C1011.75 17.448 1012.28 17.298 1012.9 17.298Z" fill="#141414"/>
<path d="M1025.2 24.786C1025.2 25.17 1025.26 25.458 1025.4 25.65C1025.53 25.83 1025.73 25.968 1025.99 26.064L1025.61 27.216C1025.12 27.156 1024.72 27.018 1024.42 26.802C1024.12 26.586 1023.9 26.25 1023.76 25.794C1023.12 26.742 1022.18 27.216 1020.93 27.216C1020 27.216 1019.26 26.952 1018.72 26.424C1018.18 25.896 1017.91 25.206 1017.91 24.354C1017.91 23.346 1018.27 22.572 1018.99 22.032C1019.72 21.492 1020.75 21.222 1022.08 21.222H1023.54V20.52C1023.54 19.848 1023.38 19.368 1023.06 19.08C1022.73 18.792 1022.23 18.648 1021.56 18.648C1020.87 18.648 1020.01 18.816 1019.01 19.152L1018.59 17.946C1019.77 17.514 1020.86 17.298 1021.87 17.298C1022.98 17.298 1023.82 17.574 1024.37 18.126C1024.92 18.666 1025.2 19.44 1025.2 20.448V24.786ZM1021.31 25.974C1022.26 25.974 1023 25.482 1023.54 24.498V22.32H1022.3C1020.55 22.32 1019.67 22.968 1019.67 24.264C1019.67 24.828 1019.81 25.254 1020.09 25.542C1020.36 25.83 1020.77 25.974 1021.31 25.974Z" fill="#141414"/>
<path d="M1034.95 26.172C1034.2 26.784 1033.36 27.126 1032.43 27.198V28.008C1033.01 28.056 1033.43 28.218 1033.69 28.494C1033.97 28.782 1034.11 29.13 1034.11 29.538C1034.11 30.114 1033.9 30.558 1033.48 30.87C1033.06 31.182 1032.52 31.338 1031.87 31.338C1031.54 31.338 1031.23 31.296 1030.94 31.212C1030.65 31.14 1030.42 31.038 1030.24 30.906L1030.69 29.97C1031.05 30.162 1031.42 30.258 1031.82 30.258C1032.1 30.258 1032.31 30.198 1032.47 30.078C1032.64 29.97 1032.72 29.79 1032.72 29.538C1032.72 29.286 1032.59 29.094 1032.34 28.962C1032.09 28.842 1031.68 28.782 1031.12 28.782L1031.32 27.162C1030.25 26.994 1029.41 26.49 1028.81 25.65C1028.21 24.81 1027.91 23.706 1027.91 22.338C1027.91 21.33 1028.08 20.448 1028.42 19.692C1028.75 18.936 1029.23 18.348 1029.84 17.928C1030.46 17.508 1031.2 17.298 1032.05 17.298C1032.62 17.298 1033.13 17.382 1033.6 17.55C1034.07 17.706 1034.52 17.964 1034.95 18.324L1034.16 19.368C1033.82 19.128 1033.49 18.954 1033.17 18.846C1032.86 18.726 1032.51 18.666 1032.13 18.666C1031.36 18.666 1030.76 18.972 1030.33 19.584C1029.91 20.196 1029.7 21.102 1029.7 22.302C1029.7 23.502 1029.91 24.39 1030.33 24.966C1030.75 25.53 1031.35 25.812 1032.13 25.812C1032.5 25.812 1032.84 25.758 1033.15 25.65C1033.46 25.53 1033.81 25.344 1034.2 25.092L1034.95 26.172Z" fill="#141414"/>
<path d="M1043.41 24.786C1043.41 25.17 1043.47 25.458 1043.61 25.65C1043.74 25.83 1043.94 25.968 1044.2 26.064L1043.82 27.216C1043.33 27.156 1042.93 27.018 1042.63 26.802C1042.33 26.586 1042.11 26.25 1041.97 25.794C1041.33 26.742 1040.39 27.216 1039.14 27.216C1038.21 27.216 1037.47 26.952 1036.93 26.424C1036.39 25.896 1036.12 25.206 1036.12 24.354C1036.12 23.346 1036.48 22.572 1037.2 22.032C1037.93 21.492 1038.96 21.222 1040.29 21.222H1041.75V20.52C1041.75 19.848 1041.59 19.368 1041.27 19.08C1040.94 18.792 1040.44 18.648 1039.77 18.648C1039.08 18.648 1038.22 18.816 1037.22 19.152L1036.8 17.946C1037.98 17.514 1039.07 17.298 1040.08 17.298C1041.19 17.298 1042.03 17.574 1042.58 18.126C1043.13 18.666 1043.41 19.44 1043.41 20.448V24.786ZM1039.52 25.974C1040.47 25.974 1041.21 25.482 1041.75 24.498V22.32H1040.51C1038.76 22.32 1037.88 22.968 1037.88 24.264C1037.88 24.828 1038.02 25.254 1038.3 25.542C1038.57 25.83 1038.98 25.974 1039.52 25.974ZM1041.05 15.192C1040.82 15.192 1040.61 15.15 1040.42 15.066C1040.24 14.982 1040.04 14.862 1039.81 14.706C1039.63 14.574 1039.47 14.478 1039.34 14.418C1039.22 14.358 1039.09 14.328 1038.96 14.328C1038.77 14.328 1038.6 14.394 1038.46 14.526C1038.31 14.658 1038.16 14.868 1038.01 15.156L1037 14.652C1037.23 14.172 1037.5 13.788 1037.83 13.5C1038.16 13.212 1038.54 13.068 1038.96 13.068C1039.21 13.068 1039.43 13.116 1039.61 13.212C1039.79 13.296 1039.99 13.416 1040.22 13.572C1040.26 13.596 1040.33 13.644 1040.44 13.716C1040.56 13.788 1040.67 13.842 1040.76 13.878C1040.86 13.914 1040.95 13.932 1041.05 13.932C1041.23 13.932 1041.39 13.872 1041.54 13.752C1041.68 13.62 1041.84 13.416 1042 13.14L1043.01 13.644C1042.78 14.148 1042.5 14.532 1042.17 14.796C1041.83 15.06 1041.46 15.192 1041.05 15.192Z" fill="#141414"/>
<path d="M1050.37 17.298C1051.71 17.298 1052.74 17.742 1053.47 18.63C1054.21 19.518 1054.59 20.724 1054.59 22.248C1054.59 23.232 1054.42 24.102 1054.08 24.858C1053.75 25.602 1053.26 26.184 1052.62 26.604C1051.99 27.012 1051.23 27.216 1050.36 27.216C1049.02 27.216 1047.99 26.772 1047.24 25.884C1046.5 24.996 1046.13 23.79 1046.13 22.266C1046.13 21.282 1046.29 20.418 1046.63 19.674C1046.97 18.918 1047.45 18.336 1048.09 17.928C1048.72 17.508 1049.49 17.298 1050.37 17.298ZM1050.37 18.63C1048.73 18.63 1047.91 19.842 1047.91 22.266C1047.91 24.678 1048.72 25.884 1050.36 25.884C1051.99 25.884 1052.8 24.672 1052.8 22.248C1052.8 19.836 1051.99 18.63 1050.37 18.63Z" fill="#141414"/>
<path d="M1102.14 14.382C1102.88 14.382 1103.51 14.478 1104.01 14.67C1104.53 14.862 1105.05 15.174 1105.58 15.606L1104.64 16.704C1103.88 16.092 1103.09 15.786 1102.25 15.786C1101.21 15.786 1100.38 16.182 1099.74 16.974C1099.12 17.766 1098.81 19.038 1098.81 20.79C1098.81 22.494 1099.12 23.754 1099.74 24.57C1100.37 25.374 1101.2 25.776 1102.23 25.776C1102.76 25.776 1103.22 25.686 1103.61 25.506C1104.01 25.326 1104.43 25.074 1104.87 24.75L1105.72 25.83C1105.34 26.226 1104.84 26.556 1104.24 26.82C1103.64 27.084 1102.95 27.216 1102.17 27.216C1101.17 27.216 1100.27 26.97 1099.47 26.478C1098.69 25.974 1098.08 25.242 1097.64 24.282C1097.21 23.31 1096.99 22.146 1096.99 20.79C1096.99 19.434 1097.22 18.276 1097.67 17.316C1098.13 16.344 1098.75 15.612 1099.53 15.12C1100.31 14.628 1101.18 14.382 1102.14 14.382Z" fill="#141414"/>
<path d="M1110.99 17.298C1112.33 17.298 1113.36 17.742 1114.09 18.63C1114.83 19.518 1115.21 20.724 1115.21 22.248C1115.21 23.232 1115.04 24.102 1114.7 24.858C1114.37 25.602 1113.88 26.184 1113.24 26.604C1112.61 27.012 1111.85 27.216 1110.98 27.216C1109.64 27.216 1108.61 26.772 1107.86 25.884C1107.12 24.996 1106.75 23.79 1106.75 22.266C1106.75 21.282 1106.91 20.418 1107.25 19.674C1107.59 18.918 1108.07 18.336 1108.71 17.928C1109.34 17.508 1110.11 17.298 1110.99 17.298ZM1110.99 18.63C1109.35 18.63 1108.53 19.842 1108.53 22.266C1108.53 24.678 1109.34 25.884 1110.98 25.884C1112.61 25.884 1113.42 24.672 1113.42 22.248C1113.42 19.836 1112.61 18.63 1110.99 18.63Z" fill="#141414"/>
<path d="M1122.41 17.298C1123.27 17.298 1123.94 17.556 1124.42 18.072C1124.91 18.588 1125.16 19.296 1125.16 20.196V27H1123.5V20.43C1123.5 19.758 1123.38 19.284 1123.13 19.008C1122.87 18.732 1122.5 18.594 1122.01 18.594C1121.51 18.594 1121.06 18.738 1120.68 19.026C1120.29 19.314 1119.93 19.728 1119.6 20.268V27H1117.94V17.514H1119.36L1119.51 18.918C1119.84 18.414 1120.26 18.018 1120.75 17.73C1121.25 17.442 1121.81 17.298 1122.41 17.298Z" fill="#141414"/>
<path d="M1133.28 26.568C1132.65 27 1131.95 27.216 1131.15 27.216C1130.35 27.216 1129.72 26.988 1129.26 26.532C1128.82 26.064 1128.6 25.392 1128.6 24.516V18.792H1126.94V17.514H1128.6V15.372L1130.25 15.174V17.514H1132.5L1132.32 18.792H1130.25V24.444C1130.25 24.936 1130.34 25.296 1130.51 25.524C1130.69 25.74 1130.98 25.848 1131.39 25.848C1131.76 25.848 1132.18 25.722 1132.65 25.47L1133.28 26.568Z" fill="#141414"/>
<path d="M1141.26 24.786C1141.26 25.17 1141.33 25.458 1141.46 25.65C1141.59 25.83 1141.79 25.968 1142.05 26.064L1141.67 27.216C1141.18 27.156 1140.79 27.018 1140.49 26.802C1140.19 26.586 1139.96 26.25 1139.82 25.794C1139.18 26.742 1138.24 27.216 1136.99 27.216C1136.06 27.216 1135.32 26.952 1134.78 26.424C1134.24 25.896 1133.97 25.206 1133.97 24.354C1133.97 23.346 1134.33 22.572 1135.05 22.032C1135.78 21.492 1136.81 21.222 1138.15 21.222H1139.6V20.52C1139.6 19.848 1139.44 19.368 1139.12 19.08C1138.79 18.792 1138.3 18.648 1137.62 18.648C1136.93 18.648 1136.08 18.816 1135.07 19.152L1134.65 17.946C1135.83 17.514 1136.92 17.298 1137.93 17.298C1139.05 17.298 1139.88 17.574 1140.43 18.126C1140.98 18.666 1141.26 19.44 1141.26 20.448V24.786ZM1137.37 25.974C1138.32 25.974 1139.06 25.482 1139.6 24.498V22.32H1138.36C1136.61 22.32 1135.73 22.968 1135.73 24.264C1135.73 24.828 1135.87 25.254 1136.15 25.542C1136.42 25.83 1136.83 25.974 1137.37 25.974Z" fill="#141414"/>
<path d="M1149.45 26.568C1148.83 27 1148.12 27.216 1147.33 27.216C1146.52 27.216 1145.89 26.988 1145.44 26.532C1144.99 26.064 1144.77 25.392 1144.77 24.516V18.792H1143.11V17.514H1144.77V15.372L1146.43 15.174V17.514H1148.68L1148.5 18.792H1146.43V24.444C1146.43 24.936 1146.51 25.296 1146.68 25.524C1146.86 25.74 1147.15 25.848 1147.56 25.848C1147.93 25.848 1148.35 25.722 1148.82 25.47L1149.45 26.568Z" fill="#141414"/>
<path d="M1154.47 17.298C1155.8 17.298 1156.83 17.742 1157.56 18.63C1158.31 19.518 1158.68 20.724 1158.68 22.248C1158.68 23.232 1158.51 24.102 1158.17 24.858C1157.84 25.602 1157.35 26.184 1156.72 26.604C1156.08 27.012 1155.32 27.216 1154.45 27.216C1153.12 27.216 1152.08 26.772 1151.33 25.884C1150.59 24.996 1150.22 23.79 1150.22 22.266C1150.22 21.282 1150.39 20.418 1150.72 19.674C1151.06 18.918 1151.54 18.336 1152.18 17.928C1152.82 17.508 1153.58 17.298 1154.47 17.298ZM1154.47 18.63C1152.82 18.63 1152 19.842 1152 22.266C1152 24.678 1152.82 25.884 1154.45 25.884C1156.08 25.884 1156.9 24.672 1156.9 22.248C1156.9 19.836 1156.09 18.63 1154.47 18.63Z" fill="#141414"/>
</svg>
